<svg width="24" height="24" viewBox="0 0 24 24" fill="none" xmlns="http://www.w3.org/2000/svg">
<path fill-rule="evenodd" clip-rule="evenodd" d="M6 2.5C4.067 2.5 2.5 4.067 2.5 6C2.5 7.933 4.067 9.5 6 9.5H9.33333C9.42538 9.5 9.5 9.42538 9.5 9.33333V6C9.5 4.067 7.933 2.5 6 2.5ZM1 6C1 3.23858 3.23858 1 6 1C8.76142 1 11 3.23858 11 6V9.33333C11 10.2538 10.2538 11 9.33333 11H6C3.23858 11 1 8.76142 1 6Z" fill="#939BA1"/>
<path fill-rule="evenodd" clip-rule="evenodd" d="M18 2.5C19.933 2.5 21.5 4.067 21.5 6C21.5 7.933 19.933 9.5 18 9.5H14.6667C14.5746 9.5 14.5 9.42538 14.5 9.33333V6C14.5 4.067 16.067 2.5 18 2.5ZM23 6C23 3.23858 20.7614 1 18 1C15.2386 1 13 3.23858 13 6V9.33333C13 10.2538 13.7462 11 14.6667 11H18C20.7614 11 23 8.76142 23 6Z" fill="#939BA1"/>
<path fill-rule="evenodd" clip-rule="evenodd" d="M6 21.5C4.067 21.5 2.5 19.933 2.5 18C2.5 16.067 4.067 14.5 6 14.5H9.33333C9.42538 14.5 9.5 14.5746 9.5 14.6667V18C9.5 19.933 7.933 21.5 6 21.5ZM1 18C1 20.7614 3.23858 23 6 23C8.76142 23 11 20.7614 11 18V14.6667C11 13.7462 10.2538 13 9.33333 13H6C3.23858 13 1 15.2386 1 18Z" fill="#939BA1"/>
<path fill-rule="evenodd" clip-rule="evenodd" d="M18 21.5C19.933 21.5 21.5 19.933 21.5 18C21.5 16.067 19.933 14.5 18 14.5H14.6667C14.5746 14.5 14.5 14.5746 14.5 14.6667V18C14.5 19.933 16.067 21.5 18 21.5ZM23 18C23 20.7614 20.7614 23 18 23C15.2386 23 13 20.7614 13 18V14.6667C13 13.7462 13.7462 13 14.6667 13H18C20.7614 13 23 15.2386 23 18Z" fill="#939BA1"/>
</svg>
